<?xml version="1.0" encoding="UTF-8"?>
<svg version="1.1" xmlns="http://www.w3.org/2000/svg" width="500" height="500">
<path d="M0 0 C165 0 330 0 500 0 C500 165 500 330 500 500 C335 500 170 500 0 500 C0 335 0 170 0 0 Z " fill="#071C29" transform="translate(0,0)"/>
<path d="M0 0 C1.010625 0.5775 2.02125 1.155 3.0625 1.75 C10.28099345 7.27905881 16.23192698 13.6265044 20 22 C20.375 25.625 20.375 25.625 20 28 C23.3 28.66 26.6 29.32 30 30 C30.9008511 34.61149968 31.13434452 38.9918777 31.125 43.6875 C31.12886719 45.64236328 31.12886719 45.64236328 31.1328125 47.63671875 C31 51 31 51 30 54 C29.74656234 58.56187786 29.99830823 61.87151072 32 66 C30.68 66.33 29.36 66.66 28 67 C24.86782222 63.60409791 24.64261963 61.25487922 24.70703125 56.703125 C24.71669922 55.49785156 24.72636719 54.29257813 24.73632812 53.05078125 C24.76146484 51.79652344 24.78660156 50.54226562 24.8125 49.25 C24.83280273 47.34541016 24.83280273 47.34541016 24.85351562 45.40234375 C24.8888676 42.26780156 24.93821752 39.13411455 25 36 C23.515 35.505 23.515 35.505 22 35 C22.02320313 35.83402344 22.04640625 36.66804688 22.0703125 37.52734375 C22.16853373 43.65213907 21.94715877 49.14195135 20.46484375 55.08203125 C19.77588991 57.92468954 19.55777405 60.09394372 20 63 C21.20314145 64.83615315 22.53059849 66.5396647 23.87109375 68.27734375 C25.65937682 71.00617709 25.60435354 72.84393149 25 76 C20.19754969 85.82319382 10.49662803 91.60731305 1.1875 96.5625 C0.36306396 97.00432617 -0.46137207 97.44615234 -1.31079102 97.90136719 C-5.477838 100.03605005 -8.23542066 101.24967 -13 101 C-13 100.01 -13 99.02 -13 98 C-12.47156494 97.73372803 -11.94312988 97.46745605 -11.39868164 97.19311523 C2.55936327 90.2689929 2.55936327 90.2689929 15 81 C15.55171875 80.56171875 16.1034375 80.1234375 16.671875 79.671875 C18.32187732 78.35755144 18.32187732 78.35755144 20 76 C20.26010343 72.80857748 20.26010343 72.80857748 19 70 C17.04836882 68.56362302 17.04836882 68.56362302 15 68 C14.62101562 69.09248047 14.62101562 69.09248047 14.234375 70.20703125 C8.42773196 83.3454799 -7.93007584 92.30955515 -20 99 C-20.68320313 99.37898438 -21.36640625 99.75796875 -22.0703125 100.1484375 C-24.74676877 101.32954573 -27.11316902 101.13121959 -30 101 C-30.33 100.01 -30.66 99.02 -31 98 C-31.99 97.505 -31.99 97.505 -33 97 C-33 97.66 -33 98.32 -33 99 C-38.875 98.125 -38.875 98.125 -40 97 C-40.04080783 95.00041636 -40.04254356 92.99954746 -40 91 C-42.97 91 -45.94 91 -49 91 C-48 87 -48 87 -46.42919922 85.86621094 C-45.76936035 85.57520508 -45.10952148 85.28419922 -44.4296875 84.984375 C-43.70620117 84.65373047 -42.98271484 84.32308594 -42.23730469 83.98242188 C-41.49899414 83.65822266 -40.76068359 83.33402344 -40 83 C-38.68795994 82.38476046 -37.3779879 81.76508786 -36.0703125 81.140625 C-35.42497559 80.83382812 -34.77963867 80.52703125 -34.11474609 80.2109375 C-23.40345669 75.03797614 -14.54758456 69.17140495 -8 59 C-7.61070312 58.42507812 -7.22140625 57.85015625 -6.8203125 57.2578125 C-2.39922049 50.25506093 -1.23089694 42.15249243 -2 34 C-2.77851979 30.7447571 -2.77851979 30.7447571 -4 28 C-4.226875 27.29875 -4.45375 26.5975 -4.6875 25.875 C-6.86590401 22.76299428 -9.48733893 21.20747724 -13 20 C-19.20795581 18.98258502 -24.42241432 19.12574452 -29.8125 22.5625 C-34.57317805 26.22521987 -38.8074639 30.35221178 -42.63671875 34.9765625 C-47.89109116 41.32100285 -54.32506077 46.77497503 -62 50 C-64.33203812 50.0777346 -66.66839059 50.08967728 -69 50 C-69 48.68 -69 47.36 -69 46 C-68.24976563 45.81566406 -67.49953125 45.63132813 -66.7265625 45.44140625 C-55.86080888 42.3623199 -49.8325588 36.18388485 -42.48583984 27.97729492 C-41.9748877 27.4072876 -41.46393555 26.83728027 -40.9375 26.25 C-40.43428223 25.68708252 -39.93106445 25.12416504 -39.41259766 24.54418945 C-35.45748988 20.23238931 -31.42546081 17.28696554 -26 15 C-25.34 14.67 -24.68 14.34 -24 14 C-16.84507683 13.37364309 -11.57903081 14.29789806 -5 17 C-4.01 16.67 -3.02 16.34 -2 16 C-7.53388376 11.44268396 -11.97633467 10.37499922 -19.1015625 10.70703125 C-25.72656388 11.37667425 -30.58731684 12.91041717 -36 17 C-36.79277344 17.59296875 -37.58554688 18.1859375 -38.40234375 18.796875 C-41.14002057 21.11875428 -43.17691007 23.54208266 -45.375 26.375 C-55.78281487 39.36742223 -55.78281487 39.36742223 -62.5 40.375 C-65 40 -65 40 -66.875 38.375 C-68 36 -68 36 -68.1875 33.3125 C-66.66695316 29.0709746 -64.2482678 26.61369312 -61.18359375 23.36328125 C-59.11090883 21.12003549 -57.27082403 18.81527485 -55.4375 16.375 C-42.85796705 0.04716377 -19.84312722 -12.84229357 0 0 Z " fill="#1C202B" transform="translate(266,184)"/>
<path d="M0 0 C3.4229133 1.9284892 6.34371425 4.11221335 7.6640625 7.91015625 C9.44829861 19.00976461 5.96139648 26.81184235 -0.3203125 35.8125 C-9.89339947 48.27977605 -23.10037558 55.69167487 -38 60 C-40.97265625 60.15625 -40.97265625 60.15625 -43 60 C-43.33 58.02 -43.66 56.04 -44 54 C-44.99 53.67 -45.98 53.34 -47 53 C-46.83203125 50.6484375 -46.83203125 50.6484375 -46 48 C-43.69921875 46.6640625 -43.69921875 46.6640625 -40.6875 45.625 C-27.35217093 40.53131559 -13.23086623 32.51980409 -7 19 C-6.14833113 16.19259873 -6.14833113 16.19259873 -6 14 C-9.90553833 15.50014055 -11.40548934 17.69002379 -13.6875 21.125 C-21.61527965 32.29397132 -32.3773924 40.219876 -46 43 C-48.9375 43.125 -48.9375 43.125 -51 43 C-50.42415568 40.61435923 -49.77772405 38.33317216 -49 36 C-49.99 36 -50.98 36 -52 36 C-52 34.35 -52 32.7 -52 31 C-51.2265625 30.70867187 -50.453125 30.41734375 -49.65625 30.1171875 C-37.71866414 25.4189792 -29.69672345 18.66551329 -21.5625 8.875 C-15.65658705 2.12913498 -9.26941464 -2.1518284 0 0 Z " fill="#1E1E29" transform="translate(252,208)"/>
<path d="M0 0 C3.45979261 1.42285843 5.06261924 3.02602995 7.125 6.125 C7.62257813 6.84945312 8.12015625 7.57390625 8.6328125 8.3203125 C13.93964795 18.72170998 13.76182074 33.6460561 10.375 44.625 C8.26961859 49.92908369 5.4933036 54.50258257 2 59 C1.23042969 60.01513672 1.23042969 60.01513672 0.4453125 61.05078125 C-8.41017919 71.96125546 -22.5852652 80.92766979 -36 85 C-37.32 85 -38.64 85 -40 85 C-40 83.02 -40 81.04 -40 79 C-42.97 79 -45.94 79 -49 79 C-48 75 -48 75 -46.42919922 73.86621094 C-45.76936035 73.57520508 -45.10952148 73.28419922 -44.4296875 72.984375 C-43.70620117 72.65373047 -42.98271484 72.32308594 -42.23730469 71.98242188 C-41.49899414 71.65822266 -40.76068359 71.33402344 -40 71 C-38.68795994 70.38476046 -37.3779879 69.76508786 -36.0703125 69.140625 C-35.42497559 68.83382812 -34.77963867 68.52703125 -34.11474609 68.2109375 C-23.40345669 63.03797614 -14.54758456 57.17140495 -8 47 C-7.61070312 46.42507812 -7.22140625 45.85015625 -6.8203125 45.2578125 C-2.39922049 38.25506093 -1.23089694 30.15249243 -2 22 C-2.77851979 18.7447571 -2.77851979 18.7447571 -4 16 C-4.226875 15.29875 -4.45375 14.5975 -4.6875 13.875 C-6.86590401 10.76299428 -9.48733893 9.20747724 -13 8 C-19.20795581 6.98258502 -24.42241432 7.12574452 -29.8125 10.5625 C-34.57317805 14.22521987 -38.8074639 18.35221178 -42.63671875 22.9765625 C-47.89109116 29.32100285 -54.32506077 34.77497503 -62 38 C-64.33203812 38.0777346 -66.66839059 38.08967728 -69 38 C-69 36.68 -69 35.36 -69 34 C-68.24976563 33.81566406 -67.49953125 33.63132813 -66.7265625 33.44140625 C-55.86080888 30.3623199 -49.8325588 24.18388485 -42.48583984 15.97729492 C-41.9748877 15.4072876 -41.46393555 14.83728027 -40.9375 14.25 C-40.43428223 13.68708252 -39.93106445 13.12416504 -39.41259766 12.54418945 C-35.45748988 8.23238931 -31.42546081 5.28696554 -26 3 C-25.34 2.67 -24.68 2.34 -24 2 C-16.84507683 1.37364309 -11.57903081 2.29789806 -5 5 C-4.01 4.67 -3.02 4.34 -2 4 C-2.495 3.01 -2.495 3.01 -3 2 C-2.01 2 -1.02 2 0 2 C0 1.34 0 0.68 0 0 Z " fill="#201E29" transform="translate(266,196)"/>
<path d="M0 0 C3.67125 -0.061875 7.3425 -0.12375 11.125 -0.1875 C12.84420654 -0.22846802 12.84420654 -0.22846802 14.59814453 -0.27026367 C21.90600465 -0.32984906 26.2365056 0.59696139 31.875 5.5 C34.70240923 9.16007667 34.64353085 12.88814311 34.41796875 17.375 C33.81855895 21.13951763 32.6172806 23.24496779 30 26 C25.34582205 28.8814837 21.4734519 29.38802258 16.125 29.1875 C13.77375 29.125625 11.4225 29.06375 9 29 C9 34.28 9 39.56 9 45 C6.03 45 3.06 45 0 45 C0 30.15 0 15.3 0 0 Z " fill="#F15C5C" transform="translate(233,301)"/>
<path d="M0 0 C1.010625 0.5775 2.02125 1.155 3.0625 1.75 C9.82627232 6.93076178 15.96057423 12.8607685 19 21 C19.125 23.76953125 19.125 23.76953125 19 26 C17.203125 25.8515625 17.203125 25.8515625 15 25 C13.359375 22.5234375 13.359375 22.5234375 11.75 19.375 C6.47801011 9.9591367 -0.53514133 4.09157916 -11 1 C-21.31538194 -0.43234292 -30.69380969 1.70196371 -39.1875 7.75 C-48.60409657 15.42136177 -56.52216283 24.74342448 -63 35 C-59.35525999 32.97301301 -56.54177144 30.78718567 -53.625 27.8125 C-52.84511719 27.0184375 -52.06523437 26.224375 -51.26171875 25.40625 C-49.24459324 23.26022356 -47.33171819 21.06648961 -45.4375 18.8125 C-38.80321117 11.15872183 -30.79568504 5.83579115 -20.6015625 4.58203125 C-12.52113702 4.25776255 -6.79773662 5.61436347 0 10 C0 11.32 0 12.64 0 14 C-5.56577737 13.24103036 -5.56577737 13.24103036 -7.84375 11.9765625 C-14.36647932 9.02242784 -23.44692465 10.74031884 -30 13 C-33.20212693 14.80132223 -33.20212693 14.80132223 -36 17 C-36.79277344 17.59296875 -37.58554688 18.1859375 -38.40234375 18.796875 C-41.14002057 21.11875428 -43.17691007 23.54208266 -45.375 26.375 C-55.78281487 39.36742223 -55.78281487 39.36742223 -62.5 40.375 C-65 40 -65 40 -66.875 38.375 C-68 36 -68 36 -68.1875 33.3125 C-66.66695316 29.0709746 -64.2482678 26.61369312 -61.18359375 23.36328125 C-59.11090883 21.12003549 -57.27082403 18.81527485 -55.4375 16.375 C-42.85796705 0.04716377 -19.84312722 -12.84229357 0 0 Z " fill="#389EA2" transform="translate(266,184)"/>
<path d="M0 0 C2.96657728 0.79591098 4.73523955 1.91971528 6.62109375 4.3671875 C9.00358579 10.2393878 8.52704737 18.79385789 6.5625 24.6875 C6.30906234 29.24937786 6.56080823 32.55901072 8.5625 36.6875 C6.5825 37.1825 6.5825 37.1825 4.5625 37.6875 C1.43032222 34.29159791 1.20511963 31.94237922 1.26953125 27.390625 C1.2840332 25.58271484 1.2840332 25.58271484 1.29882812 23.73828125 C1.32396484 22.48402344 1.34910156 21.22976562 1.375 19.9375 C1.38853516 18.66777344 1.40207031 17.39804688 1.41601562 16.08984375 C1.4513676 12.95530156 1.50071752 9.82161455 1.5625 6.6875 C0.5725 6.3575 -0.4175 6.0275 -1.4375 5.6875 C-1.41429687 6.52152344 -1.39109375 7.35554687 -1.3671875 8.21484375 C-1.26896627 14.33963907 -1.49034123 19.82945135 -2.97265625 25.76953125 C-3.66161009 28.61218954 -3.87972595 30.78144372 -3.4375 33.6875 C-2.23435855 35.52365315 -0.90690151 37.2271647 0.43359375 38.96484375 C2.22187682 41.69367709 2.16685354 43.53143149 1.5625 46.6875 C-3.23995031 56.51069382 -12.94087197 62.29481305 -22.25 67.25 C-23.07443604 67.69182617 -23.89887207 68.13365234 -24.74829102 68.58886719 C-28.915338 70.72355005 -31.67292066 71.93717 -36.4375 71.6875 C-36.4375 70.6975 -36.4375 69.7075 -36.4375 68.6875 C-35.90906494 68.42122803 -35.38062988 68.15495605 -34.83618164 67.88061523 C-20.87813673 60.9564929 -20.87813673 60.9564929 -8.4375 51.6875 C-7.88578125 51.24921875 -7.3340625 50.8109375 -6.765625 50.359375 C-5.11562268 49.04505144 -5.11562268 49.04505144 -3.4375 46.6875 C-3.17739657 43.49607748 -3.17739657 43.49607748 -4.4375 40.6875 C-6.38913118 39.25112302 -6.38913118 39.25112302 -8.4375 38.6875 C-8.81648438 39.77998047 -8.81648438 39.77998047 -9.203125 40.89453125 C-15.25254266 54.5822959 -34.23528085 65.76551692 -47.4375 71.6875 C-50.1875 71.8125 -50.1875 71.8125 -52.4375 71.6875 C-52.13818359 69.81738281 -52.13818359 69.81738281 -51.4375 67.6875 C-48.99267499 66.1052045 -46.64165284 64.75963337 -44.0625 63.4375 C-29.58454646 55.63957546 -15.95516856 46.39401275 -9.4375 30.6875 C-7.52374545 24.29516523 -7.09359183 18.41892586 -7.046875 11.77929688 C-6.86895554 6.29838901 -5.75400858 1.6229255 0 0 Z " fill="#D95C56" transform="translate(289.4375,213.3125)"/>
<path d="M0 0 C6.23699422 2.50694204 10.94732035 5.89464071 14 12 C17.80417572 21.84123718 16.68308492 32.14215118 12.91796875 41.765625 C5.89905046 57.54302058 -8.10742931 67.13531925 -23.4375 74 C-24.44913208 74.45487793 -24.44913208 74.45487793 -25.48120117 74.91894531 C-29.1131299 76.46491072 -32.04353683 77.36591567 -36 77 C-35.72314453 75.12597656 -35.72314453 75.12597656 -35 73 C-33.42919922 71.86621094 -33.42919922 71.86621094 -31.4296875 70.984375 C-30.70620117 70.65373047 -29.98271484 70.32308594 -29.23730469 69.98242188 C-28.49899414 69.65822266 -27.76068359 69.33402344 -27 69 C-25.68795994 68.38476046 -24.3779879 67.76508786 -23.0703125 67.140625 C-22.42497559 66.83382812 -21.77963867 66.52703125 -21.11474609 66.2109375 C-10.40345669 61.03797614 -1.54758456 55.17140495 5 45 C5.38929688 44.42507812 5.77859375 43.85015625 6.1796875 43.2578125 C10.60077951 36.25506093 11.76910306 28.15249243 11 20 C10.22148021 16.7447571 10.22148021 16.7447571 9 14 C8.773125 13.29875 8.54625 12.5975 8.3125 11.875 C6.13409599 8.76299428 3.51266107 7.20747724 0 6 C-6.20795581 4.98258502 -11.42241432 5.12574452 -16.8125 8.5625 C-21.57317805 12.22521987 -25.8074639 16.35221178 -29.63671875 20.9765625 C-34.89109116 27.32100285 -41.32506077 32.77497503 -49 36 C-51.33203812 36.0777346 -53.66839059 36.08967728 -56 36 C-56 34.68 -56 33.36 -56 32 C-55.24976563 31.81566406 -54.49953125 31.63132813 -53.7265625 31.44140625 C-42.86080888 28.3623199 -36.8325588 22.18388485 -29.48583984 13.97729492 C-28.9748877 13.4072876 -28.46393555 12.83728027 -27.9375 12.25 C-27.43428223 11.68708252 -26.93106445 11.12416504 -26.41259766 10.54418945 C-22.45748988 6.23238931 -18.42546081 3.28696554 -13 1 C-8.96941975 -1.01529013 -4.37106998 -0.59220948 0 0 Z " fill="#D95956" transform="translate(253,198)"/>
<path d="M0 0 C4.25116673 2.16672369 6.61718024 5.15608607 8.81640625 9.30078125 C11.78258638 18.44650332 9.57699309 28.74893438 5.41015625 37.12890625 C-2.9158296 51.18882575 -17.00149476 60.11244335 -32.05078125 65.82421875 C-35.20974792 66.53006844 -37.37285242 65.78011879 -40.18359375 64.30078125 C-40.51359375 65.29078125 -40.84359375 66.28078125 -41.18359375 67.30078125 C-41.18359375 66.64078125 -41.18359375 65.98078125 -41.18359375 65.30078125 C-42.50359375 64.97078125 -43.82359375 64.64078125 -45.18359375 64.30078125 C-43.73339844 63.84638672 -43.73339844 63.84638672 -42.25390625 63.3828125 C-25.55835875 58.0570081 -9.84002466 50.40432469 -0.61328125 34.61328125 C3.32247717 26.8767047 5.19787602 20.07783665 3.12890625 11.42578125 C1.28462081 8.43979531 -0.08927767 7.04133405 -3.18359375 5.30078125 C-9.57012793 4.11361138 -13.77208841 5.17988645 -19.12036133 8.71166992 C-23.4442999 12.04198777 -26.87163379 16.23863171 -30.45117188 20.33007812 C-36.06950426 26.5759587 -42.18220892 31.4810807 -50.18359375 34.30078125 C-52.94908133 34.27182326 -55.44079479 33.76566243 -58.18359375 33.30078125 C-58.18359375 32.31078125 -58.18359375 31.32078125 -58.18359375 30.30078125 C-56.92546875 30.11515625 -55.66734375 29.92953125 -54.37109375 29.73828125 C-42.76803719 26.99967163 -35.62631595 19.06179392 -28.01733398 10.43139648 C-20.15726002 1.63717801 -12.20831138 -3.90928039 0 0 Z " fill="#1E1E29" transform="translate(255.18359375,203.69921875)"/>
<path d="M0 0 C4.17768593 2.00114345 5.93661381 4.87322761 8 9 C8 12.3 8 15.6 8 19 C1.07 19 -5.86 19 -13 19 C-9.93858775 24.97998273 -9.93858775 24.97998273 -6.78125 25.65625 C-5.65203125 25.57890625 -5.65203125 25.57890625 -4.5 25.5 C-3.7471875 25.4690625 -2.994375 25.438125 -2.21875 25.40625 C0.15334586 24.97192259 1.90774767 24.1792695 4 23 C5.5625 24.25 5.5625 24.25 7 26 C6.81640625 27.96875 6.81640625 27.96875 6 30 C2.58193649 32.70110385 -1.23585859 33.89083694 -5.5 34.5 C-11.33112395 33.66698229 -15.43153587 31.9105228 -19.203125 27.31640625 C-22.35629442 21.49675226 -21.82047976 15.43761043 -21 9 C-19.53791023 5.35922311 -17.5677355 2.99086313 -14.1953125 0.859375 C-9.65808513 -0.91676383 -4.76714347 -0.63094546 0 0 Z " fill="#46B1B1" transform="translate(220,311)"/>
<path d="M0 0 C2.75569447 2.18159145 4.43588747 3.87177494 6 7 C6.08527628 9.03232634 6.10716135 11.06747006 6.09765625 13.1015625 C6.09443359 14.31328125 6.09121094 15.525 6.08789062 16.7734375 C6.07951172 18.04445313 6.07113281 19.31546875 6.0625 20.625 C6.05798828 21.90375 6.05347656 23.1825 6.04882812 24.5 C6.03701203 27.66671292 6.02053815 30.83333356 6 34 C3.03 34 0.06 34 -3 34 C-3.495 21.13 -3.495 21.13 -4 8 C-6.31 8 -8.62 8 -11 8 C-13.60088622 10.60088622 -13.29962225 11.82137113 -13.4140625 15.4453125 C-13.47207031 17.05986328 -13.47207031 17.05986328 -13.53125 18.70703125 C-13.5621875 19.83496094 -13.593125 20.96289062 -13.625 22.125 C-13.68300781 23.82849609 -13.68300781 23.82849609 -13.7421875 25.56640625 C-13.83667601 28.37743956 -13.92223541 31.18846233 -14 34 C-16.97 34 -19.94 34 -23 34 C-23 23.11 -23 12.22 -23 1 C-20.03 1 -17.06 1 -14 1 C-14 1.66 -14 2.32 -14 3 C-13.360625 2.505 -12.72125 2.01 -12.0625 1.5 C-7.97278113 -0.50312761 -4.47755 -0.8922654 0 0 Z " fill="#EF5B5B" transform="translate(336,312)"/>
<path d="M0 0 C3.4229133 1.9284892 6.34371425 4.11221335 7.6640625 7.91015625 C9.44829861 19.00976461 5.96139648 26.81184235 -0.3203125 35.8125 C-9.89339947 48.27977605 -23.10037558 55.69167487 -38 60 C-40.97265625 60.15625 -40.97265625 60.15625 -43 60 C-42.83203125 58.1484375 -42.83203125 58.1484375 -42 56 C-39.69921875 54.7265625 -39.69921875 54.7265625 -36.6875 53.625 C-20.45950184 47.29165315 -7.22659367 39.69889642 1.16015625 23.80078125 C3.16539508 19.05349491 3.6603558 15.03521296 3 10 C1.1866503 6.7698823 1.1866503 6.7698823 -2 5 C-8.09520119 4.90325077 -11.08949123 6.29292873 -16 10 C-18.37966535 12.36343635 -20.5902036 14.86426939 -22.8125 17.375 C-30.06038507 25.33254805 -37.5834727 31.61413071 -48 35 C-49.32 35 -50.64 35 -52 35 C-52 33.68 -52 32.36 -52 31 C-51.2265625 30.70867187 -50.453125 30.41734375 -49.65625 30.1171875 C-37.71866414 25.4189792 -29.69672345 18.66551329 -21.5625 8.875 C-15.65658705 2.12913498 -9.26941464 -2.1518284 0 0 Z " fill="#D75955" transform="translate(252,208)"/>
<path d="M0 0 C0.69871036 9.12205194 -1.05386571 16.57585524 -6.75 23.875 C-12.16403196 29.64271244 -18.29424211 31.44958872 -26 32 C-26.33 36.29 -26.66 40.58 -27 45 C-27.66 44.67 -28.32 44.34 -29 44 C-30.29993601 34.85918012 -26.99743111 28.51015815 -22 21 C-19.48573182 17.83420841 -16.85061399 14.86542237 -14 12 C-20.06699932 15.46685675 -24.75495836 20.26487507 -27 27 C-27.66 27 -28.32 27 -29 27 C-29.48429827 20.31399336 -29.41597594 15.28363103 -25 10 C-17.67024466 2.47502115 -10.42937287 -0.20449751 0 0 Z " fill="#359FA4" transform="translate(323,153)"/>
<path d="M0 0 C3.69573756 2.69246254 6.82813034 5.71741936 10 9 C10.70769531 9.65097656 11.41539062 10.30195313 12.14453125 10.97265625 C17.55396404 16.00973803 21.19592067 21.70492456 25 28 C25.78376383 29.13051995 26.57379573 30.25677246 27.375 31.375 C29.001969 34.0031807 29.64133421 35.9513408 30 39 C27.66992188 39.24658203 27.66992188 39.24658203 25 39 C23.50195312 37.35107422 23.50195312 37.35107422 22.28125 35.0546875 C21.82363281 34.22453125 21.36601562 33.394375 20.89453125 32.5390625 C20.43433594 31.65992188 19.97414063 30.78078125 19.5 29.875 C12.72032865 17.26519111 4.4035733 6.6503766 -9.5625 1.75 C-19.83459615 -0.43978794 -29.57595925 0.44504697 -39 5 C-40.24523437 5.60134766 -40.24523437 5.60134766 -41.515625 6.21484375 C-49.24770372 10.40913173 -57.27560899 17.06076742 -61.56640625 24.83984375 C-62.27603516 25.90912109 -62.27603516 25.90912109 -63 27 C-64.32 27 -65.64 27 -67 27 C-67.33203125 24.89453125 -67.33203125 24.89453125 -67 22 C-65.2964945 19.67811902 -63.67413847 17.73697618 -61.6875 15.6875 C-61.14351562 15.11644531 -60.59953125 14.54539063 -60.0390625 13.95703125 C-43.7499101 -2.74785358 -22.02472051 -11.35567124 0 0 Z " fill="#38999E" transform="translate(269,174)"/>
<path d="M0 0 C2.97 0 5.94 0 9 0 C9 12.21 9 24.42 9 37 C15.27 37 21.54 37 28 37 C28 39.31 28 41.62 28 44 C18.76 44 9.52 44 0 44 C0 29.48 0 14.96 0 0 Z " fill="#48B5B5" transform="translate(128,300)"/>
<path d="M0 0 C0.91007812 0.00902344 1.82015625 0.01804687 2.7578125 0.02734375 C3.80582031 0.04474609 3.80582031 0.04474609 4.875 0.0625 C4.875 2.3725 4.875 4.6825 4.875 7.0625 C2.895 7.3925 0.915 7.7225 -1.125 8.0625 C-1.455 10.0425 -1.785 12.0225 -2.125 14.0625 C-0.145 14.0625 1.835 14.0625 3.875 14.0625 C3.875 16.0425 3.875 18.0225 3.875 20.0625 C1.895 20.0625 -0.085 20.0625 -2.125 20.0625 C-2.125 28.9725 -2.125 37.8825 -2.125 47.0625 C-5.095 47.0625 -8.065 47.0625 -11.125 47.0625 C-11.125 38.1525 -11.125 29.2425 -11.125 20.0625 C-12.775 20.0625 -14.425 20.0625 -16.125 20.0625 C-16.125 18.0825 -16.125 16.1025 -16.125 14.0625 C-14.475 14.0625 -12.825 14.0625 -11.125 14.0625 C-11.24875 12.2371875 -11.24875 12.2371875 -11.375 10.375 C-11.38700396 6.9898826 -11.16413893 6.12381766 -9.25 3.125 C-6.06073511 0.02953702 -4.33506709 -0.05557778 0 0 Z " fill="#47B2B2" transform="translate(191.125,296.9375)"/>
<path d="M0 0 C0.99 0.66 1.98 1.32 3 2 C2.83836139 12.02159412 -2.00818749 17.94625013 -8.625 25.125 C-16.55936918 32.70707093 -27.40440357 39.03970359 -38 42 C-40.33984375 41.62109375 -40.33984375 41.62109375 -42 41 C-41.80078125 39.11328125 -41.80078125 39.11328125 -41 37 C-38.91796875 35.98046875 -38.91796875 35.98046875 -36.1875 35.1875 C-23.30295492 30.88152509 -10.6753013 22.85176286 -3.828125 10.796875 C-2.79892293 8.56370069 -2.22949859 6.44798495 -2 4 C-5.90553833 5.50014055 -7.40548934 7.69002379 -9.6875 11.125 C-17.61527965 22.29397132 -28.3773924 30.219876 -42 33 C-44.9375 33.125 -44.9375 33.125 -47 33 C-46.92578125 31.13671875 -46.92578125 31.13671875 -46 29 C-43.04296875 27.83203125 -43.04296875 27.83203125 -39.1875 26.8125 C-26.53515714 23.01453645 -18.54280231 15.26764694 -11.05859375 4.72265625 C-7.714211 0.29944036 -5.39111703 -0.44925975 0 0 Z " fill="#D85955" transform="translate(248,218)"/>
<path d="M0 0 C10.19630955 8.0720784 19.19616492 16.53705661 23 29.375 C22.01 29.375 21.02 29.375 20 29.375 C19.505 27.395 19.505 27.395 19 25.375 C17.515 25.87 17.515 25.87 16 26.375 C15.6596875 25.7459375 15.319375 25.116875 14.96875 24.46875 C8.64472623 13.30079312 1.27314531 6.46604844 -11 2.375 C-20.86859665 1.76877201 -30.20448001 1.25355798 -39 6.375 C-39.76441406 6.81070313 -40.52882812 7.24640625 -41.31640625 7.6953125 C-49.88203806 12.99991697 -56.25323564 20.1902144 -62 28.375 C-62.144375 27.75625 -62.28875 27.1375 -62.4375 26.5 C-62.93152225 24.34241678 -62.93152225 24.34241678 -64 22.375 C-63.34 22.375 -62.68 22.375 -62 22.375 C-61.78988281 21.68148437 -61.57976562 20.98796875 -61.36328125 20.2734375 C-59.57702505 16.47572374 -57.14092099 13.94093204 -54.1875 11 C-53.32777588 10.14281372 -53.32777588 10.14281372 -52.45068359 9.26831055 C-38.26043152 -4.34341884 -17.91191075 -9.70228499 0 0 Z " fill="#0A2735" transform="translate(268,178.625)"/>
<path d="M0 0 C3.3 0 6.6 0 10 0 C10 2.64 10 5.28 10 8 C11.65 8 13.3 8 15 8 C15 10.31 15 12.62 15 15 C13.02 15 11.04 15 9 15 C9.33 21.27 9.66 27.54 10 34 C11.65 34.33 13.3 34.66 15 35 C15 37.31 15 39.62 15 42 C12.17998673 43.41000664 10.12992745 43.24548451 7 43 C3.20664634 41.27574834 1.52185641 39.8451386 0 36 C-0.22705078 33.61816406 -0.22705078 33.61816406 -0.1953125 31.015625 C-0.18886719 30.08105469 -0.18242187 29.14648438 -0.17578125 28.18359375 C-0.15902344 27.21550781 -0.14226562 26.24742187 -0.125 25.25 C-0.11597656 24.26644531 -0.10695313 23.28289062 -0.09765625 22.26953125 C-0.07412785 19.84610593 -0.04125368 17.42317778 0 15 C-1.32 15 -2.64 15 -4 15 C-4 12.69 -4 10.38 -4 8 C-2.68 8 -1.36 8 0 8 C0 5.36 0 2.72 0 0 Z " fill="#E55959" transform="translate(350,304)"/>
<path d="M0 0 C3.45979261 1.42285843 5.06261924 3.02602995 7.125 6.125 C7.62257813 6.84945312 8.12015625 7.57390625 8.6328125 8.3203125 C13.93964795 18.72170998 13.76182074 33.6460561 10.375 44.625 C8.26961859 49.92908369 5.4933036 54.50258257 2 59 C1.23042969 60.01513672 1.23042969 60.01513672 0.4453125 61.05078125 C-8.41017919 71.96125546 -22.5852652 80.92766979 -36 85 C-37.32 85 -38.64 85 -40 85 C-39.70068359 83.1184082 -39.70068359 83.1184082 -39 81 C-36.54327679 79.55047353 -34.21065633 78.35433778 -31.625 77.1875 C-30.15299185 76.48324064 -28.68293939 75.77487941 -27.21484375 75.0625 C-26.49280762 74.71316406 -25.77077148 74.36382812 -25.02685547 74.00390625 C-11.28239384 67.19624229 -0.65867023 57.42245914 5 43 C5.26425781 42.33742187 5.52851563 41.67484375 5.80078125 40.9921875 C9.09584234 30.63628123 7.89637481 18.57624326 3 9 C1.1415997 6.32171722 -0.71022852 4.28977148 -3 2 C-2.01 2 -1.02 2 0 2 C0 1.34 0 0.68 0 0 Z " fill="#DF5B56" transform="translate(266,196)"/>
<path d="M0 0 C2.97 0 5.94 0 9 0 C9.33 0.66 9.66 1.32 10 2 C10.99 1.34 11.98 0.68 13 0 C16.1875 -0.125 16.1875 -0.125 19 0 C19 2.97 19 5.94 19 9 C16.03 9.66 13.06 10.32 10 11 C9.67 18.59 9.34 26.18 9 34 C6.03 34 3.06 34 0 34 C0 22.78 0 11.56 0 0 Z " fill="#EA5A5A" transform="translate(273,312)"/>
<path d="M0 0 C5.21119603 2.61767854 8.87969801 4.9239181 12.28051758 9.73828125 C9.97051758 9.73828125 7.66051758 9.73828125 5.28051758 9.73828125 C5.28051758 9.07828125 5.28051758 8.41828125 5.28051758 7.73828125 C4.55864258 7.44953125 3.83676758 7.16078125 3.09301758 6.86328125 C1.38589059 6.18043045 -0.30924572 5.46482699 -1.97729492 4.69140625 C-9.78326493 1.97822009 -19.04742937 2.94180315 -26.44213867 6.44140625 C-35.98697267 11.87688633 -42.94803793 20.06802293 -50.23657227 28.13183594 C-50.72593262 28.66196289 -51.21529297 29.19208984 -51.71948242 29.73828125 C-52.46319092 30.58374512 -52.46319092 30.58374512 -53.22192383 31.44628906 C-54.71948242 32.73828125 -54.71948242 32.73828125 -57.71948242 32.73828125 C-56.39573198 28.90142083 -54.78978658 26.38947256 -52.03198242 23.42578125 C-49.38723547 20.55271082 -46.79796764 17.66204408 -44.28198242 14.67578125 C-37.61166497 7.11508206 -31.41779927 1.83684097 -21.71948242 -1.26171875 C-14.41162191 -3.69767225 -6.9528666 -3.21660951 0 0 Z " fill="#0A2835" transform="translate(260.719482421875,186.26171875)"/>
<path d="M0 0 C2.97 0 5.94 0 9 0 C9 11.22 9 22.44 9 34 C6.03 34 3.06 34 0 34 C0 22.78 0 11.56 0 0 Z " fill="#EC5B5B" transform="translate(297,312)"/>
<path d="M0 0 C2.97 0 5.94 0 9 0 C9 10.89 9 21.78 9 33 C6.03 33 3.06 33 0 33 C0 22.11 0 11.22 0 0 Z " fill="#46B1B1" transform="translate(161,311)"/>
<path d="M0 0 C6.59012628 0.28043091 10.94654167 2.82584342 16 7 C20.11962944 12.27827522 20.12771398 17.48658698 20 24 C13.98798274 23.69939914 10.29901944 20.94076782 6 17 C1.87876759 11.79423274 -0.39421455 6.70164743 0 0 Z " fill="#35A1A5" transform="translate(272,161)"/>
<path d="M0 0 C-0.66 0.99 -1.32 1.98 -2 3 C-9.75 1.125 -9.75 1.125 -12 0 C-20.68728133 -0.89212822 -26.42395071 0.40282734 -33.24609375 5.765625 C-37.6767086 9.56116015 -41.59568399 13.65196518 -45.359375 18.1015625 C-47.76545743 20.8857436 -50.36691924 23.43114072 -53 26 C-55.475 25.01 -55.475 25.01 -58 24 C-57.28972656 23.46246094 -56.57945312 22.92492187 -55.84765625 22.37109375 C-52.77730739 19.81457556 -50.10339791 17.02419796 -47.4375 14.0625 C-46.96892578 13.55009766 -46.50035156 13.03769531 -46.01757812 12.50976562 C-43.89477465 10.17319732 -41.85856504 7.81727988 -39.92578125 5.3203125 C-30.01154667 -6.62503302 -12.50253916 -8.8401792 0 0 Z " fill="#10212D" transform="translate(265,199)"/>
<path d="M0 0 C1.875 0.3125 1.875 0.3125 4 1 C6 4 6 4 5.828125 6.44921875 C2.90458956 15.45425953 -8.26479247 20.76190148 -16 25 C-19.62256143 26.7810927 -23.27423028 28.44697374 -27 30 C-27.33 28.68 -27.66 27.36 -28 26 C-27.05898437 25.33613281 -26.11796875 24.67226563 -25.1484375 23.98828125 C-23.8905333 23.0964835 -22.63272597 22.2045491 -21.375 21.3125 C-20.75753906 20.87744141 -20.14007813 20.44238281 -19.50390625 19.99414062 C-13.34070153 15.61502148 -8.01546169 11.47040208 -3.625 5.1875 C-2.93664062 4.21167969 -2.24828125 3.23585937 -1.5390625 2.23046875 C-1.03117187 1.49441406 -0.52328125 0.75835937 0 0 Z " fill="#1A1D29" transform="translate(281,252)"/>
<path d="M0 0 C0.80026611 -0.0100708 1.60053223 -0.0201416 2.42504883 -0.03051758 C7.71934078 0.04721804 11.45640853 1.0561629 16.1875 3.4375 C16.1875 4.7575 16.1875 6.0775 16.1875 7.4375 C15.03765625 7.27894531 13.8878125 7.12039062 12.703125 6.95703125 C0.01181793 5.38596575 -13.43347603 5.00240725 -24.3125 12.75 C-26.8125 14.4375 -26.8125 14.4375 -29.1875 14.1875 C-29.72375 13.94 -30.26 13.6925 -30.8125 13.4375 C-30.43599626 11.06803645 -30.15901924 9.76408252 -28.38671875 8.09375 C-19.26769131 2.5052777 -10.65458754 0.08730743 0 0 Z " fill="#359095" transform="translate(248.8125,158.5625)"/>
<path d="M0 0 C0.99 0 1.98 0 3 0 C2.8319814 7.89687437 -1.55634918 12.50745353 -6.92578125 17.953125 C-11.52312429 22.19115666 -16.43908986 25.19048094 -22 28 C-22.73992187 28.39445312 -23.47984375 28.78890625 -24.2421875 29.1953125 C-29.59659091 32 -29.59659091 32 -33 32 C-33 31.34 -33 30.68 -33 30 C-35.64 30 -38.28 30 -41 30 C-37.89360109 28.31828522 -34.82086643 27.30813779 -31.4375 26.3125 C-18.51230994 22.01982739 -9.71006781 14.02685564 -2.125 2.875 C-1.073125 1.451875 -1.073125 1.451875 0 0 Z " fill="#1F1E2A" transform="translate(243,222)"/>
<path d="M0 0 C10.08839779 -0.60773481 10.08839779 -0.60773481 14.1875 2.125 C16.30269678 5.48013973 16.67678396 7.10849223 16 11 C14.45493534 13.03667615 13.27853844 13.86073078 11 15 C7.32984725 15.1377685 3.67388652 15.04271961 0 15 C0 10.05 0 5.1 0 0 Z " fill="#19212D" transform="translate(242,308)"/>
<path d="M0 0 C1.32 0.33 2.64 0.66 4 1 C3.98952637 1.79696289 3.97905273 2.59392578 3.96826172 3.41503906 C3.92668228 7.02666062 3.90066739 10.63823179 3.875 14.25 C3.85824219 15.50425781 3.84148437 16.75851563 3.82421875 18.05078125 C3.81455078 19.85869141 3.81455078 19.85869141 3.8046875 21.703125 C3.79421387 22.81333008 3.78374023 23.92353516 3.77294922 25.06738281 C3.99531666 27.93950942 4.50718425 29.57223735 6 32 C5.01 32 4.02 32 3 32 C3.33 32.66 3.66 33.32 4 34 C4.039992 35.99960012 4.04346799 38.00047242 4 40 C3.67 40 3.34 40 3 40 C2.62875 38.4221875 2.62875 38.4221875 2.25 36.8125 C1.45624662 33.90979605 0.94099319 32.93593546 -1.1875 30.625 C-3.22663975 27.67176312 -3.16889289 27.31556045 -2.6796875 23.96484375 C-2.57197021 23.16626953 -2.46425293 22.36769531 -2.35327148 21.54492188 C-2.1784021 20.28518555 -2.1784021 20.28518555 -2 19 C-1.8150581 17.32232439 -1.63668486 15.64391182 -1.46484375 13.96484375 C-1.37783203 13.13662109 -1.29082031 12.30839844 -1.20117188 11.45507812 C-1.11416016 10.62427734 -1.02714844 9.79347656 -0.9375 8.9375 C-0.84662109 8.07189453 -0.75574219 7.20628906 -0.66210938 6.31445312 C-0.44116432 4.2096608 -0.22054721 2.10483405 0 0 Z " fill="#241E28" transform="translate(288,219)"/>
<path d="M0 0 C0.495 1.485 0.495 1.485 1 3 C-2.82573388 6.92496041 -6.61997324 10.68179791 -11 14 C-10.67 14.66 -10.34 15.32 -10 16 C-10.95261719 16.54269531 -11.90523437 17.08539063 -12.88671875 17.64453125 C-14.15366244 18.36715839 -15.42058859 19.08981627 -16.6875 19.8125 C-17.62625977 20.34713867 -17.62625977 20.34713867 -18.58398438 20.89257812 C-19.81844556 21.59706121 -21.05138464 22.30421878 -22.28271484 23.01416016 C-23.79178794 23.88047195 -25.31114586 24.72881625 -26.83203125 25.57421875 C-29.26218932 26.97036256 -29.26218932 26.97036256 -31 30 C-31.33 29.01 -31.66 28.02 -32 27 C-32.66 26.67 -33.32 26.34 -34 26 C-34 26.66 -34 27.32 -34 28 C-35.98 27.67 -37.96 27.34 -40 27 C-37.40589623 25.27059748 -35.50547749 24.39895712 -32.625 23.375 C-20.8081339 18.71361614 -7.32402366 10.62701473 0 0 Z " fill="#271E2A" transform="translate(267,255)"/>
<path d="M0 0 C0.33 0.66 0.66 1.32 1 2 C1.99 2.33 2.98 2.66 4 3 C-10.86744649 17.24667628 -10.86744649 17.24667628 -19.0625 17.3125 C-20.031875 17.209375 -21.00125 17.10625 -22 17 C-22 15.68 -22 14.36 -22 13 C-21.24976563 12.81566406 -20.49953125 12.63132813 -19.7265625 12.44140625 C-11.2827147 10.04862822 -6.06331604 6.2779467 0 0 Z " fill="#CE5854" transform="translate(219,217)"/>
<path d="M0 0 C0.89847656 -0.01224609 1.79695312 -0.02449219 2.72265625 -0.03710938 C7.2903227 -0.04722976 10.98603448 -0.00320769 15.125 2.1875 C15.125 3.5075 15.125 4.8275 15.125 6.1875 C13.4853125 5.95740234 13.4853125 5.95740234 11.8125 5.72265625 C6.59566053 5.07055132 1.37494266 4.84585966 -3.875 4.625 C-4.84050781 4.58181641 -5.80601562 4.53863281 -6.80078125 4.49414062 C-9.15874425 4.38908287 -11.51679416 4.28693086 -13.875 4.1875 C-13.545 3.1975 -13.215 2.2075 -12.875 1.1875 C-8.59155569 -0.24031477 -4.48652757 0.00319099 0 0 Z " fill="#39A4A8" transform="translate(249.875,159.8125)"/>
<path d="M0 0 C0.99 0.33 1.98 0.66 3 1 C2.98952637 1.70084717 2.97905273 2.40169434 2.96826172 3.1237793 C2.92658332 6.31164945 2.90063615 9.49946215 2.875 12.6875 C2.85824219 13.79029297 2.84148437 14.89308594 2.82421875 16.02929688 C2.81777344 17.09599609 2.81132812 18.16269531 2.8046875 19.26171875 C2.79421387 20.24100342 2.78374023 21.22028809 2.77294922 22.22924805 C3.01402315 25.17112772 3.76944458 27.33237726 5 30 C3.68 30.33 2.36 30.66 1 31 C-1.72056375 27.91430796 -2.37356749 26.03376231 -2.25 21.9375 C-2.23453125 21.08027344 -2.2190625 20.22304687 -2.203125 19.33984375 C-2 17 -2 17 -1 14 C-0.77439324 11.60745424 -0.59151405 9.21071877 -0.4375 6.8125 C-0.35371094 5.54019531 -0.26992188 4.26789063 -0.18359375 2.95703125 C-0.12300781 1.98121094 -0.06242187 1.00539062 0 0 Z " fill="#E7605C" transform="translate(293,220)"/>
<path d="M0 0 C4.59770843 1.97044647 7.25091795 4.87637693 10 9 C11.34956562 13.58852312 11.09287103 18.2635776 11 23 C10.34 23 9.68 23 9 23 C8.67 20.69 8.34 18.38 8 16 C7.67 17.65 7.34 19.3 7 21 C6.67 21 6.34 21 6 21 C5.92523438 20.26394531 5.85046875 19.52789062 5.7734375 18.76953125 C5.01966773 12.14300464 5.01966773 12.14300464 1.3125 6.875 C-2.25639417 4.85487122 -4.92987263 4.24420764 -9 4 C-9 3.67 -9 3.34 -9 3 C-5.92382812 2.70703125 -5.92382812 2.70703125 -2.84765625 2.4140625 C-2.23792969 2.27742187 -1.62820312 2.14078125 -1 2 C-0.67 1.34 -0.34 0.68 0 0 Z " fill="#2A2029" transform="translate(254,204)"/>
<path d="M0 0 C4.737154 -0.49864779 7.98771363 -0.56120334 12 2.1875 C14.46482339 4.52289203 14.97124495 5.8280948 15.5390625 9.22265625 C15.62146292 12.60481877 15.63390901 15.67427449 15 19 C14.01 19.66 13.02 20.32 12 21 C11.98582031 20.26394531 11.97164062 19.52789062 11.95703125 18.76953125 C11.65830199 12.44599893 11.65830199 12.44599893 8.875 6.875 C5.51179116 4.68160293 2.97752472 4.23397204 -1 4 C-0.67 2.68 -0.34 1.36 0 0 Z " fill="#E55D5A" transform="translate(244,208)"/>
<path d="M0 0 C3.20502377 0.50989015 4.81278639 1.53708659 6.8125 4.10546875 C8.948357 9.41841304 8.07256675 15.80333411 7.75 21.4375 C7.42 21.4375 7.09 21.4375 6.75 21.4375 C6.75 16.8175 6.75 12.1975 6.75 7.4375 C6.09 7.4375 5.43 7.4375 4.75 7.4375 C4.42 11.7275 4.09 16.0175 3.75 20.4375 C3.42 20.4375 3.09 20.4375 2.75 20.4375 C2.42 15.8175 2.09 11.1975 1.75 6.4375 C0.76 6.1075 -0.23 5.7775 -1.25 5.4375 C-1.25 9.7275 -1.25 14.0175 -1.25 18.4375 C-1.58 18.4375 -1.91 18.4375 -2.25 18.4375 C-2.25 13.8175 -2.25 9.1975 -2.25 4.4375 C-3.24 4.7675 -4.23 5.0975 -5.25 5.4375 C-2.89094955 0.56212908 -2.89094955 0.56212908 0 0 Z " fill="#C75451" transform="translate(289.25,213.5625)"/>
<path d="M0 0 C1.32 0.33 2.64 0.66 4 1 C4.26618296 10.00585669 4.38226419 17.37512574 -1 25 C-1.66 25.33 -2.32 25.66 -3 26 C-2.5359375 24.2984375 -2.5359375 24.2984375 -2.0625 22.5625 C-0.38744128 15.17323386 -0.32912526 7.5438973 0 0 Z " fill="#0A1927" transform="translate(279,218)"/>
<path d="M0 0 C2.5 0.25 2.5 0.25 4.5 2.25 C4.6875 5.3125 4.6875 5.3125 4.5 8.25 C3.5 9.25 3.5 9.25 0.0625 9.4375 C-3.5 9.25 -3.5 9.25 -5.5 7.25 C-5.08994391 3.14943907 -4.53376372 0.45337637 0 0 Z " fill="#E15758" transform="translate(301.5,298.75)"/>
<path d="M0 0 C5.1073427 2.12991803 7.88712378 5.96638312 10 11 C9.92168116 14.25023177 9.18348592 16.98424973 8 20 C6.33282023 17.49923035 5.30216755 15.43385112 4.1875 12.6875 C2.34325244 8.42833204 0.13840326 5.39993686 -3 2 C-2.01 2 -1.02 2 0 2 C0 1.34 0 0.68 0 0 Z " fill="#D05757" transform="translate(266,196)"/>
<path d="M0 0 C0.99 0.33 1.98 0.66 3 1 C1.25113898 2.91771657 -0.49904501 4.83419683 -2.25 6.75 C-2.74113281 7.28882813 -3.23226562 7.82765625 -3.73828125 8.3828125 C-6.42873164 11.3243716 -9.1531511 14.2073768 -12 17 C-14.475 16.01 -14.475 16.01 -17 15 C-16.30519531 14.45859375 -15.61039063 13.9171875 -14.89453125 13.359375 C-11.71275661 10.76586368 -8.69829688 8.03763939 -5.6875 5.25 C-5.13771484 4.74339844 -4.58792969 4.23679688 -4.02148438 3.71484375 C-2.67964588 2.4780187 -1.33963279 1.23921375 0 0 Z " fill="#171B27" transform="translate(224,208)"/>
<path d="M0 0 C0 0.33 0 0.66 0 1 C-2.64 1 -5.28 1 -8 1 C-8 1.99 -8 2.98 -8 4 C-6.35 4 -4.7 4 -3 4 C-3 4.33 -3 4.66 -3 5 C-5.60380996 5.19476139 -8.20775533 5.38108614 -10.8125 5.5625 C-11.55048828 5.61857422 -12.28847656 5.67464844 -13.04882812 5.73242188 C-16.36788516 5.95769724 -18.81232564 6.06255812 -22 5 C-22 4.34 -22 3.68 -22 3 C-14.69065285 -0.50848663 -8.00945568 -0.30372936 0 0 Z " fill="#359198" transform="translate(256,189)"/>
<path d="M0 0 C3.625 0.375 3.625 0.375 7 1 C7.6875 3.3125 7.6875 3.3125 8 6 C6.875 7.8125 6.875 7.8125 5 9 C2.4375 9.3125 2.4375 9.3125 0 9 C-2 7 -2 7 -2.25 4.5 C-2 2 -2 2 0 0 Z " fill="#45AEAF" transform="translate(163,298)"/>
<path d="M0 0 C1.32 0.33 2.64 0.66 4 1 C4 5.95 4 10.9 4 16 C2.02 16.99 2.02 16.99 0 18 C0 12.06 0 6.12 0 0 Z " fill="#0E1824" transform="translate(288,219)"/>
<path d="M0 0 C7.3255814 4.39534884 7.3255814 4.39534884 9 9 C8.63526346 11.83860178 7.88462766 14.2529983 7 17 C6.67 17 6.34 17 6 17 C5.71125 16.0925 5.4225 15.185 5.125 14.25 C3.50348226 9.37311593 3.50348226 9.37311593 0.3125 5.5 C-0.120625 5.005 -0.55375 4.51 -1 4 C-0.6875 1.8125 -0.6875 1.8125 0 0 Z " fill="#D55654" transform="translate(258,201)"/>
<path d="M0 0 C2 2 2 2 2 6 C-1.63 6 -5.26 6 -9 6 C-8.67 4.35 -8.34 2.7 -8 1 C-5.23749964 -0.38125018 -3.05268901 -0.19079306 0 0 Z " fill="#081E2B" transform="translate(217,318)"/>
<path d="M0 0 C3.96 0 7.92 0 12 0 C12 1.32 12 2.64 12 4 C7.38 4.33 2.76 4.66 -2 5 C-1.34 3.35 -0.68 1.7 0 0 Z " fill="#131C28" transform="translate(241,203)"/>
<path d="M0 0 C-0.33 0.66 -0.66 1.32 -1 2 C-0.01 2.33 0.98 2.66 2 3 C0.44033782 3.508783 -1.12289241 4.00663469 -2.6875 4.5 C-3.99267578 4.91765625 -3.99267578 4.91765625 -5.32421875 5.34375 C-7.99391677 5.99850805 -10.26396684 6.11831495 -13 6 C-12.80859375 4.11328125 -12.80859375 4.11328125 -12 2 C-9.78515625 0.91796875 -9.78515625 0.91796875 -7.0625 0.1875 C-6.16660156 -0.06644531 -5.27070313 -0.32039062 -4.34765625 -0.58203125 C-2 -1 -2 -1 0 0 Z " fill="#C85251" transform="translate(214,245)"/>
<path d="M0 0 C1.32 0.66 2.64 1.32 4 2 C4 3.32 4 4.64 4 6 C5.65 6.33 7.3 6.66 9 7 C8.01 8.485 8.01 8.485 7 10 C4.5625 10.4375 4.5625 10.4375 2 10 C0.125 8.375 0.125 8.375 -1 6 C-0.6875 2.75 -0.6875 2.75 0 0 Z " fill="#359DA0" transform="translate(199,214)"/>
<path d="M0 0 C0.66 0.33 1.32 0.66 2 1 C1.48050781 1.54527344 0.96101563 2.09054688 0.42578125 2.65234375 C-4.29205221 7.75388271 -7.93348415 12.76376826 -11 19 C-11.33 18.34 -11.66 17.68 -12 17 C-12.66 16.67 -13.32 16.34 -14 16 C-13.34 16 -12.68 16 -12 16 C-11.91492188 15.27167969 -11.82984375 14.54335937 -11.7421875 13.79296875 C-10.84805423 10.42820408 -9.47992404 8.85288509 -7.125 6.3125 C-6.42632812 5.54550781 -5.72765625 4.77851563 -5.0078125 3.98828125 C-3 2 -3 2 0 0 Z " fill="#0C3141" transform="translate(308,164)"/>
<path d="M0 0 C0.99 0.33 1.98 0.66 3 1 C4.2062252 4.61867559 4.10816918 7.92506251 4.0625 11.6875 C4.05798828 12.38939453 4.05347656 13.09128906 4.04882812 13.81445312 C4.03706927 15.54300538 4.01913454 17.27151365 4 19 C3.67 19 3.34 19 3 19 C2.67 16.03 2.34 13.06 2 10 C1.01 11.32 0.02 12.64 -1 14 C-1.02685938 11.85423363 -1.04633088 9.70837355 -1.0625 7.5625 C-1.07410156 6.36753906 -1.08570313 5.17257813 -1.09765625 3.94140625 C-1 1 -1 1 0 0 Z " fill="#35222D" transform="translate(270,212)"/>
<path d="M0 0 C0.99 0.33 1.98 0.66 3 1 C3.02712153 2.916588 3.04645097 4.8332873 3.0625 6.75 C3.07410156 7.81734375 3.08570313 8.8846875 3.09765625 9.984375 C3.01510087 12.53368501 2.74617558 14.57933591 2 17 C1.01 17 0.02 17 -1 17 C-0.67 11.39 -0.34 5.78 0 0 Z " fill="#EC5D59" transform="translate(293,220)"/>
<path d="M0 0 C0.66 0 1.32 0 2 0 C2.054138 2.24973447 2.09285491 4.49984383 2.125 6.75 C2.14820313 8.00296875 2.17140625 9.2559375 2.1953125 10.546875 C2.01537302 13.72820492 1.68998582 15.36521896 0 18 C-0.33 18 -0.66 18 -1 18 C-1.02684312 15.18743719 -1.04676188 12.37512759 -1.0625 9.5625 C-1.07087891 8.76005859 -1.07925781 7.95761719 -1.08789062 7.13085938 C-1.0965143 5.08704779 -1.0522815 3.04316098 -1 1 C-0.67 0.67 -0.34 0.34 0 0 Z " fill="#F16258" transform="translate(285,218)"/>
<path d="M0 0 C1.44246094 -0.02126953 1.44246094 -0.02126953 2.9140625 -0.04296875 C5.375 0.1875 5.375 0.1875 7.375 2.1875 C6.62734375 2.23648438 5.8796875 2.28546875 5.109375 2.3359375 C4.12453125 2.41070312 3.1396875 2.48546875 2.125 2.5625 C0.66320312 2.66691406 0.66320312 2.66691406 -0.828125 2.7734375 C-3.54957181 3.17633326 -5.2233674 3.92510338 -7.625 5.1875 C-8.615 5.1875 -9.605 5.1875 -10.625 5.1875 C-10.295 3.8675 -9.965 2.5475 -9.625 1.1875 C-6.37294841 0.22421457 -3.38614248 0.02281767 0 0 Z " fill="#EE5D5A" transform="translate(246.625,199.8125)"/>
<path d="M0 0 C0 0.99 0 1.98 0 3 C-3.50776784 4.60355101 -6.14354879 5.22036864 -10 5 C-9.67 3.68 -9.34 2.36 -9 1 C-2.25 -1.125 -2.25 -1.125 0 0 Z " fill="#DF5C56" transform="translate(227,270)"/>
<path d="M0 0 C0.66 0.33 1.32 0.66 2 1 C2.484375 3.65234375 2.484375 3.65234375 2.75 6.9375 C2.84796875 8.01902344 2.9459375 9.10054687 3.046875 10.21484375 C3 13 3 13 1 15 C0.34 14.34 -0.32 13.68 -1 13 C-0.9765625 9.9609375 -0.9765625 9.9609375 -0.625 6.375 C-0.51414062 5.18648437 -0.40328125 3.99796875 -0.2890625 2.7734375 C-0.19367188 1.85820312 -0.09828125 0.94296875 0 0 Z " fill="#121B28" transform="translate(261,219)"/>
<path d="M0 0 C1.43739513 -0.02712066 2.87493863 -0.04645067 4.3125 -0.0625 C5.51326172 -0.07990234 5.51326172 -0.07990234 6.73828125 -0.09765625 C9 0 9 0 12 1 C12 1.66 12 2.32 12 3 C9.27157939 4.36421031 7.39046682 3.87807211 4.375 3.5625 C3.37210938 3.46066406 2.36921875 3.35882813 1.3359375 3.25390625 C0.56507813 3.17011719 -0.20578125 3.08632812 -1 3 C-0.67 2.01 -0.34 1.02 0 0 Z " fill="#081E2C" transform="translate(248,185)"/>
<path d="M0 0 C1.77503906 0.03480469 1.77503906 0.03480469 3.5859375 0.0703125 C5.36871094 0.09738281 5.36871094 0.09738281 7.1875 0.125 C8.10273438 0.14820313 9.01796875 0.17140625 9.9609375 0.1953125 C8.9709375 1.6803125 8.9709375 1.6803125 7.9609375 3.1953125 C5.140625 3.70703125 5.140625 3.70703125 1.8359375 3.8828125 C0.19238281 3.98142578 0.19238281 3.98142578 -1.484375 4.08203125 C-2.32742187 4.11941406 -3.17046875 4.15679687 -4.0390625 4.1953125 C-4.3690625 3.5353125 -4.6990625 2.8753125 -5.0390625 2.1953125 C-3.0390625 0.1953125 -3.0390625 0.1953125 0 0 Z " fill="#38AAAD" transform="translate(244.0390625,169.8046875)"/>
<path d="M0 0 C0.66 0.33 1.32 0.66 2 1 C0.7934375 2.11375 0.7934375 2.11375 -0.4375 3.25 C-3.11536182 5.66288759 -3.11536182 5.66288759 -3.5 8.1875 C-3.665 8.785625 -3.83 9.38375 -4 10 C-6.375 11.0625 -6.375 11.0625 -9 12 C-10.77277259 13.52007842 -10.77277259 13.52007842 -12 15 C-12.66 14.67 -13.32 14.34 -14 14 C-12.60919892 12.41224451 -11.21211596 10.82999061 -9.8125 9.25 C-8.64654297 7.92742187 -8.64654297 7.92742187 -7.45703125 6.578125 C-5.11544754 4.12113732 -2.69841735 2.05137234 0 0 Z " fill="#0D303E" transform="translate(232,198)"/>
<path d="M0 0 C0.598125 0.20625 1.19625 0.4125 1.8125 0.625 C1.8125 1.615 1.8125 2.605 1.8125 3.625 C0.0625 5.375 0.0625 5.375 -2.1875 6.625 C-4.4375 6.3125 -4.4375 6.3125 -6.1875 5.625 C-5.875 3.75 -5.875 3.75 -5.1875 1.625 C-2.1875 -0.375 -2.1875 -0.375 0 0 Z " fill="#399CA1" transform="translate(224.1875,166.375)"/>
<path d="M0 0 C0.33 0 0.66 0 1 0 C1 4.62 1 9.24 1 14 C-0.33333333 14 -1.66666667 14 -3 14 C-2.88512252 12.41590006 -2.75765492 10.83271037 -2.625 9.25 C-2.55539062 8.36828125 -2.48578125 7.4865625 -2.4140625 6.578125 C-2.00149945 4.00933618 -1.28839043 2.24158985 0 0 Z " fill="#0E1623" transform="translate(272,217)"/>
<path d="M0 0 C-0.33 1.32 -0.66 2.64 -1 4 C-0.34 4.33 0.32 4.66 1 5 C-0.98 5.33 -2.96 5.66 -5 6 C-5 5.34 -5 4.68 -5 4 C-7.64 4 -10.28 4 -13 4 C-9.06512611 1.79647062 -4.5498921 0 0 0 Z " fill="#32232B" transform="translate(215,248)"/>
<path d="M0 0 C0.66 0 1.32 0 2 0 C2.92556607 2.77669822 3.19295491 4.67696895 3.25 7.5625 C3.27578125 8.34753906 3.3015625 9.13257813 3.328125 9.94140625 C3.16570312 10.96041016 3.16570312 10.96041016 3 12 C2.01 12.66 1.02 13.32 0 14 C0 9.38 0 4.76 0 0 Z " fill="#F45A54" transform="translate(256,215)"/>
<path d="M0 0 C0.66 0.33 1.32 0.66 2 1 C3.14077657 4.42232972 3.09815117 7.08673217 3.0625 10.6875 C3.05347656 11.86699219 3.04445313 13.04648438 3.03515625 14.26171875 C3.02355469 15.16535156 3.01195312 16.06898438 3 17 C2.67 17 2.34 17 2 17 C1.67 13.37 1.34 9.74 1 6 C0.67 8.97 0.34 11.94 0 15 C-0.33 15 -0.66 15 -1 15 C-1.02693575 12.87506859 -1.04636628 10.75004088 -1.0625 8.625 C-1.07410156 7.44164062 -1.08570313 6.25828125 -1.09765625 5.0390625 C-1 2 -1 2 0 0 Z " fill="#DE5F5B" transform="translate(266,212)"/>
<path d="M0 0 C4.75 1.875 4.75 1.875 7 3 C7 4.32 7 5.64 7 7 C1.25 6.125 1.25 6.125 -1 5 C-0.67 3.35 -0.34 1.7 0 0 Z " fill="#3C9A9E" transform="translate(259,191)"/>
<path d="M0 0 C2.5 2.25 2.5 2.25 5 5 C5 6.32 5 7.64 5 9 C3.35 9 1.7 9 0 9 C-1.125 7.3125 -1.125 7.3125 -2 5 C-1.125 2.25 -1.125 2.25 0 0 Z " fill="#3A939A" transform="translate(294,204)"/>
<path d="M0 0 C0.33 0 0.66 0 1 0 C0.98839844 0.68707031 0.97679687 1.37414062 0.96484375 2.08203125 C0.95582031 2.98308594 0.94679688 3.88414062 0.9375 4.8125 C0.92589844 5.70582031 0.91429687 6.59914062 0.90234375 7.51953125 C0.88990033 10.13413791 0.88990033 10.13413791 2 13 C1.34 13.66 0.68 14.32 0 15 C-0.33 14.34 -0.66 13.68 -1 13 C-2.32 13.99 -3.64 14.98 -5 16 C-4.70351563 15.29488281 -4.40703125 14.58976563 -4.1015625 13.86328125 C-2.9987602 10.99677739 -2.16158606 8.15507468 -1.375 5.1875 C-1.11460937 4.21167969 -0.85421875 3.23585937 -0.5859375 2.23046875 C-0.39257812 1.49441406 -0.19921875 0.75835937 0 0 Z " fill="#CC5856" transform="translate(264,227)"/>
<path d="M0 0 C3.875 1.875 3.875 1.875 5 3 C5.04063832 4.66617115 5.042721 6.33388095 5 8 C2 8 2 8 0.61328125 6.6875 C-0.59114583 5.125 -1.79557292 3.5625 -3 2 C-2.01 2 -1.02 2 0 2 C0 1.34 0 0.68 0 0 Z " fill="#C56160" transform="translate(266,196)"/>
<path d="M0 0 C1 2 1 2 1 5 C-1.31193977 7.07277359 -3.02935582 8.00978527 -6 9 C-6.33 7.68 -6.66 6.36 -7 5 C-4.69 3.35 -2.38 1.7 0 0 Z " fill="#2D202A" transform="translate(260,273)"/>
<path d="M0 0 C1.52299523 2.93720508 2.80100302 5.9168649 4 9 C2.68 9.33 1.36 9.66 0 10 C-3 6.25 -3 6.25 -3 4 C-2.34 4 -1.68 4 -1 4 C-0.67 2.68 -0.34 1.36 0 0 Z " fill="#CD5B55" transform="translate(294,241)"/>
<path d="M0 0 C0.33 0.99 0.66 1.98 1 3 C0.34 3.66 -0.32 4.32 -1 5 C-1 6.32 -1 7.64 -1 9 C-3 10.75 -3 10.75 -5 12 C-5.35338623 9.03155565 -5.5417682 6.84401782 -3.88671875 4.265625 C-2.64496832 2.79651181 -1.32662082 1.39295186 0 0 Z " fill="#CB5750" transform="translate(233,228)"/>
<path d="M0 0 C1.2065625 0.0309375 1.2065625 0.0309375 2.4375 0.0625 C1.1175 0.3925 -0.2025 0.7225 -1.5625 1.0625 C-1.5625 2.0525 -1.5625 3.0425 -1.5625 4.0625 C-0.5725 4.3925 0.4175 4.7225 1.4375 5.0625 C0.4475 5.0625 -0.5425 5.0625 -1.5625 5.0625 C-1.5625 9.3525 -1.5625 13.6425 -1.5625 18.0625 C-1.8925 18.0625 -2.2225 18.0625 -2.5625 18.0625 C-2.5625 13.4425 -2.5625 8.8225 -2.5625 4.0625 C-3.5525 4.3925 -4.5425 4.7225 -5.5625 5.0625 C-3.15007962 0.07683121 -3.15007962 0.07683121 0 0 Z " fill="#AE504C" transform="translate(289.5625,213.9375)"/>
<path d="M0 0 C0.99 0.33 1.98 0.66 3 1 C-0.3 4.3 -3.6 7.6 -7 11 C-7.66 10.67 -8.32 10.34 -9 10 C-6.03 6.7 -3.06 3.4 0 0 Z " fill="#2A1F2A" transform="translate(238,215)"/>
<path d="M0 0 C-0.61277612 2.96175123 -1.25372522 4.38058783 -3 7 C-4.32 7 -5.64 7 -7 7 C-6.22006468 2.47637516 -4.81844319 0 0 0 Z " fill="#DB5C56" transform="translate(227,212)"/>
<path d="M0 0 C0.66 0.33 1.32 0.66 2 1 C1.67 1.99 1.34 2.98 1 4 C1.66 4.33 2.32 4.66 3 5 C0.36 5.33 -2.28 5.66 -5 6 C-4.75 4.125 -4.75 4.125 -4 2 C-2.0625 0.6875 -2.0625 0.6875 0 0 Z " fill="#C65556" transform="translate(231,275)"/>
<path d="M0 0 C0 2.8996083 -0.21438138 5.21462489 -1 8 C-1.99 8.66 -2.98 9.32 -4 10 C-4 9.34 -4 8.68 -4 8 C-4.99 7.67 -5.98 7.34 -7 7 C-4.69 4.69 -2.38 2.38 0 0 Z " fill="#C75850" transform="translate(231,204)"/>
<path d="M0 0 C2.31 0.66 4.62 1.32 7 2 C6.67 3.65 6.34 5.3 6 7 C1.2 4.53846154 1.2 4.53846154 0.1875 1.8125 C0.125625 1.214375 0.06375 0.61625 0 0 Z " fill="#39A0A4" transform="translate(266,175)"/>
<path d="M0 0 C0.33 0.99 0.66 1.98 1 3 C-0.25942386 4.19959375 -1.53295286 5.38439443 -2.8125 6.5625 C-3.87404297 7.55443359 -3.87404297 7.55443359 -4.95703125 8.56640625 C-5.63121094 9.03949219 -6.30539062 9.51257813 -7 10 C-7.99 9.67 -8.98 9.34 -10 9 C-9.44570313 8.51789063 -8.89140625 8.03578125 -8.3203125 7.5390625 C-7.59585937 6.90742188 -6.87140625 6.27578125 -6.125 5.625 C-5.40570313 4.99851562 -4.68640625 4.37203125 -3.9453125 3.7265625 C-2.5923402 2.52573166 -1.2791655 1.2791655 0 0 Z " fill="#D25C59" transform="translate(286,260)"/>
<path d="M0 0 C1.1092904 3.32787119 1.01557588 4.6993784 0 8 C-0.99 8.66 -1.98 9.32 -3 10 C-3.75 7.25 -3.75 7.25 -4 4 C-2.0625 1.625 -2.0625 1.625 0 0 Z " fill="#2E212B" transform="translate(228,213)"/>
<path d="M0 0 C0.66 0 1.32 0 2 0 C1.25 4.75 1.25 4.75 -1 7 C-1.99 7 -2.98 7 -4 7 C-2.92598892 4.08482708 -2.22189824 2.22189824 0 0 Z " fill="#0C303F" transform="translate(207,212)"/>
<path d="M0 0 C0 3.14668286 -0.52735129 4.31458176 -2 7 C-2.33 7.66 -2.66 8.32 -3 9 C-5.475 8.01 -5.475 8.01 -8 7 C-7.236875 6.401875 -6.47375 5.80375 -5.6875 5.1875 C-3.6516425 3.53040668 -1.8021721 1.89702326 0 0 Z " fill="#152838" transform="translate(215,216)"/>
<path d="M0 0 C1.32 0 2.64 0 4 0 C4 1.98 4 3.96 4 6 C3.01 6 2.02 6 1 6 C0.67 4.02 0.34 2.04 0 0 Z " fill="#3CA3A9" transform="translate(290,202)"/>
<path d="M0 0 C0.66 0 1.32 0 2 0 C2.33 2.64 2.66 5.28 3 8 C2.34 8 1.68 8 1 8 C0.67 8.99 0.34 9.98 0 11 C-0.19406478 9.35492782 -0.38007935 7.70890406 -0.5625 6.0625 C-0.66691406 5.14597656 -0.77132813 4.22945312 -0.87890625 3.28515625 C-0.91886719 2.53105469 -0.95882813 1.77695313 -1 1 C-0.67 0.67 -0.34 0.34 0 0 Z " fill="#072434" transform="translate(292,174)"/>
<path d="M0 0 C0.66 0.66 1.32 1.32 2 2 C1.625 5.125 1.625 5.125 1 8 C0.01 8 -0.98 8 -2 8 C-1.125 1.125 -1.125 1.125 0 0 Z " fill="#E25850" transform="translate(266,229)"/>
<path d="M0 0 C2.475 0.495 2.475 0.495 5 1 C5.33 2.65 5.66 4.3 6 6 C5.67 5.01 5.34 4.02 5 3 C4.34 3 3.68 3 3 3 C2.67 3.99 2.34 4.98 2 6 C0 3 0 3 0 0 Z " fill="#D95755" transform="translate(253,212)"/>
<path d="M0 0 C0 0.99 0 1.98 0 3 C-2.31 3.33 -4.62 3.66 -7 4 C-7 3.01 -7 2.02 -7 1 C-2.25 0 -2.25 0 0 0 Z " fill="#D55B56" transform="translate(208,247)"/>
<path d="M0 0 C0.66 0.33 1.32 0.66 2 1 C1.01 3.31 0.02 5.62 -1 8 C-1.99 8 -2.98 8 -4 8 C-2.25 2.25 -2.25 2.25 0 0 Z " fill="#E55E58" transform="translate(228,220)"/>
<path d="M0 0 C2.0625 2.3125 2.0625 2.3125 4 5 C3.67 5.99 3.34 6.98 3 8 C2.34 8 1.68 8 1 8 C0.26919734 6.02253397 -0.39421747 4.01927511 -1 2 C-0.67 1.34 -0.34 0.68 0 0 Z " fill="#0D2B39" transform="translate(276,200)"/>
<path d="M0 0 C2.31 0.33 4.62 0.66 7 1 C3.81237635 3.12508244 1.73487777 3.5020163 -2 4 C-1.34 2.68 -0.68 1.36 0 0 Z " fill="#339599" transform="translate(233,163)"/>
<path d="M0 0 C0.66 0.66 1.32 1.32 2 2 C1.67 2.99 1.34 3.98 1 5 C-0.65 5 -2.3 5 -4 5 C-2.25 1.125 -2.25 1.125 0 0 Z " fill="#E55E58" transform="translate(217,242)"/>
<path d="M0 0 C0.66 0.33 1.32 0.66 2 1 C1.67 3.64 1.34 6.28 1 9 C-1 7 -1 7 -1.1875 3.9375 C-1 1 -1 1 0 0 Z " fill="#E45754" transform="translate(275,209)"/>
<path d="M0 0 C0.99 0.33 1.98 0.66 3 1 C3 2.32 3 3.64 3 5 C0.36 4.67 -2.28 4.34 -5 4 C-5 3.67 -5 3.34 -5 3 C-3.35 3 -1.7 3 0 3 C0 2.01 0 1.02 0 0 Z " fill="#3C9CA0" transform="translate(262,161)"/>
<path d="M0 0 C0.99 0 1.98 0 3 0 C2.625 2.4375 2.625 2.4375 2 5 C1.01 5.495 1.01 5.495 0 6 C-0.38218767 4.34385343 -0.71395102 2.67542976 -1 1 C-0.67 0.67 -0.34 0.34 0 0 Z " fill="#E36158" transform="translate(256,260)"/>
<path d="M0 0 C1.65 0.33 3.3 0.66 5 1 C4.01 2.485 4.01 2.485 3 4 C0.375 4.1875 0.375 4.1875 -2 4 C-2.33 3.34 -2.66 2.68 -3 2 C-2.01 1.67 -1.02 1.34 0 1 C0 0.67 0 0.34 0 0 Z " fill="#2E8C8F" transform="translate(203,220)"/>
<path d="M0 0 C6.625 -0.125 6.625 -0.125 10 1 C9.67 2.32 9.34 3.64 9 5 C8.62875 4.505 8.2575 4.01 7.875 3.5 C5.25305607 1.40244486 3.26157528 1.78256165 0 2 C0 1.34 0 0.68 0 0 Z " fill="#2A1E29" transform="translate(286,213)"/>
<path d="M0 0 C1.32 0.33 2.64 0.66 4 1 C3.01 1.495 3.01 1.495 2 2 C0.9590934 3.64142963 -0.04504326 5.30712215 -1 7 C-1.66 6.34 -2.32 5.68 -3 5 C-2.01 3.35 -1.02 1.7 0 0 Z " fill="#E25B56" transform="translate(238,210)"/>
<path d="M0 0 C0.66 0.33 1.32 0.66 2 1 C1.319375 1.61875 1.319375 1.61875 0.625 2.25 C-1.05950374 4.06408095 -1.99265971 5.75285627 -3 8 C-3 7.01 -3 6.02 -3 5 C-3.99 4.67 -4.98 4.34 -6 4 C-4.02 2.68 -2.04 1.36 0 0 Z " fill="#379398" transform="translate(230,183)"/>
<path d="M0 0 C1.32 0.66 2.64 1.32 4 2 C4 3.65 4 5.3 4 7 C2.35 5.35 0.7 3.7 -1 2 C-0.67 1.34 -0.34 0.68 0 0 Z " fill="#1F1D27" transform="translate(269,195)"/>
<path d="M0 0 C0.33 0 0.66 0 1 0 C1 2.31 1 4.62 1 7 C-1.97 6.505 -1.97 6.505 -5 6 C-3.68 5.67 -2.36 5.34 -1 5 C-0.67 3.35 -0.34 1.7 0 0 Z " fill="#2F7A82" transform="translate(291,178)"/>
</svg>
